<svg width="20" height="20" viewBox="0 0 20 20" fill="none" xmlns="http://www.w3.org/2000/svg">
<path d="M16.6498 4.30807C15.0578 3.02647 12.539 2.80927 12.431 2.80167C12.349 2.79491 12.2668 2.81385 12.196 2.85585C12.1252 2.89785 12.0692 2.96083 12.0358 3.03607C11.9878 3.14416 11.947 3.25534 11.9138 3.36887C12.967 3.54687 14.2606 3.90487 15.431 4.63127C15.4757 4.65898 15.5144 4.69521 15.5451 4.7379C15.5757 4.78058 15.5976 4.82889 15.6096 4.88005C15.6216 4.93122 15.6234 4.98424 15.6149 5.0361C15.6064 5.08795 15.5877 5.13762 15.56 5.18227C15.5323 5.22692 15.4961 5.26567 15.4534 5.29632C15.4107 5.32697 15.3624 5.34891 15.3112 5.36089C15.2601 5.37286 15.207 5.37465 15.1552 5.36613C15.1033 5.35762 15.0537 5.33898 15.009 5.31127C12.997 4.06207 10.4842 4.00007 9.9998 4.00007C9.5158 4.00007 7.0014 4.06247 4.9906 5.31087C4.94595 5.33858 4.89628 5.35722 4.84443 5.36573C4.79258 5.37425 4.73955 5.37246 4.68839 5.36049C4.58506 5.33629 4.49556 5.27204 4.4396 5.18187C4.38364 5.0917 4.3658 4.98299 4.38999 4.87965C4.41418 4.77632 4.47843 4.68683 4.5686 4.63087C5.739 3.90647 7.0326 3.54687 8.0858 3.37047C8.025 3.17207 7.9698 3.04687 7.9658 3.03607C7.93252 2.9603 7.87627 2.8969 7.80499 2.85484C7.73372 2.81278 7.65102 2.79418 7.5686 2.80167C7.4606 2.80967 4.9418 3.02647 3.3278 4.32527C2.4858 5.10447 0.799805 9.66087 0.799805 13.6001C0.799805 13.6705 0.818605 13.7377 0.853005 13.7985C2.0154 15.8425 5.189 16.3765 5.9122 16.4001H5.9246C5.98772 16.4002 6.04998 16.3855 6.10629 16.357C6.1626 16.3285 6.21137 16.287 6.2486 16.2361L6.9794 15.2297C5.0062 14.7205 3.9982 13.8549 3.9406 13.8033C3.86104 13.733 3.81263 13.6341 3.80603 13.5282C3.79943 13.4222 3.83518 13.318 3.9054 13.2385C3.97563 13.1589 4.07459 13.1105 4.18051 13.1039C4.28643 13.0973 4.39064 13.133 4.4702 13.2033C4.4934 13.2253 6.3498 14.8001 9.9998 14.8001C13.6558 14.8001 15.5122 13.2189 15.531 13.2033C15.6108 13.1335 15.715 13.0983 15.8208 13.1054C15.9265 13.1124 16.0252 13.1612 16.095 13.2409C16.1296 13.2802 16.1561 13.3259 16.173 13.3754C16.1899 13.4249 16.1969 13.4773 16.1935 13.5295C16.1902 13.5818 16.1766 13.6328 16.1535 13.6798C16.1304 13.7267 16.0983 13.7687 16.059 13.8033C16.0014 13.8549 14.9934 14.7205 13.0202 15.2297L13.7514 16.2361C13.7886 16.287 13.8373 16.3284 13.8935 16.3569C13.9498 16.3854 14.012 16.4002 14.075 16.4001H14.087C14.811 16.3765 17.9842 15.8421 19.147 13.7985C19.181 13.7377 19.1998 13.6705 19.1998 13.6001C19.1998 9.66087 17.5138 5.10487 16.6498 4.30807ZM7.3998 12.0001C6.6262 12.0001 5.9998 11.2841 5.9998 10.4001C5.9998 9.51607 6.6262 8.80007 7.3998 8.80007C8.1734 8.80007 8.7998 9.51607 8.7998 10.4001C8.7998 11.2841 8.1734 12.0001 7.3998 12.0001ZM12.5998 12.0001C11.8262 12.0001 11.1998 11.2841 11.1998 10.4001C11.1998 9.51607 11.8262 8.80007 12.5998 8.80007C13.3734 8.80007 13.9998 9.51607 13.9998 10.4001C13.9998 11.2841 13.3734 12.0001 12.5998 12.0001Z" fill="#01A9F4"/>
</svg>
